<svg width="642" height="173" viewBox="0 0 642 173" fill="none" xmlns="http://www.w3.org/2000/svg">
<g clip-path="url(#clip0_1_51)">
<path d="M0.00111094 2.8708L0 44.9436V87.0164V129.089V171.162H14.8492H29.6984H44.5477H59.3969V156.932V142.701V128.471V114.24H79.1958H98.9948H118.794H138.593V101.866V89.4912V77.1169V64.7425H118.793H98.9937H79.1947H59.3957V61.6495L59.3969 58.5554V55.4623L59.398 52.3682L79.1991 52.3616L99.0003 52.355L118.801 52.3495L138.603 52.3429L138.6 39.9751L138.598 27.6063L138.596 15.2385L138.594 2.87079H103.946H69.2974H34.6492L0.00111094 2.8708Z" fill="black"/>
<path d="M208.717 96.9005L204.179 115.465L199.641 134.03L195.102 152.595L190.564 171.16H175.715H160.865H146.016H131.167L137.447 152.594L143.726 134.028L150.006 115.462L156.285 96.8961L169.393 96.8972L182.501 96.8983H195.609L208.717 96.9005ZM226.034 96.8983L230.16 115.464L234.286 134.03L238.411 152.596L242.537 171.162H258.005H273.472H288.94H304.407L298.127 152.596L291.848 134.03L285.568 115.464L279.289 96.8983H265.975H252.661H239.347L226.034 96.8983ZM274.268 82.0512L267.573 62.2556L260.878 42.46L254.182 22.6643L247.487 2.86865H232.638H217.789H202.939H188.09L181.395 22.6632L174.699 42.4578L168.004 62.2523L161.309 82.0469L174.068 82.048L186.827 82.0491L199.587 82.0502L212.346 82.0513L213.707 76.4856L215.067 70.9199L216.428 65.3542L217.789 59.7885L219.025 65.3542L220.261 70.9199L221.498 76.4856L222.734 82.0513H235.617H248.501H261.385L274.268 82.0512Z" fill="black"/>
<path d="M376.417 96.9071L385.16 115.429L393.904 133.951L402.647 152.473L411.39 170.995L429.252 171.037L447.114 171.078L464.976 171.12L482.838 171.162L471.398 152.597L459.957 134.032L448.517 115.467L437.076 96.9027L421.911 96.9038L406.747 96.9049L391.582 96.906L376.417 96.9071ZM316.78 96.9071V115.468V134.028V152.588V171.149L331.69 171.152L346.599 171.155L361.509 171.159L376.419 171.162V152.598V134.034L376.418 115.471L376.417 96.9071L361.508 96.907H346.598H331.689L316.78 96.9071ZM456.807 82.0579C457.394 80.9195 457.933 79.6908 458.412 78.3654C458.89 77.04 459.308 75.6167 459.653 74.0888C459.997 72.561 460.267 70.9287 460.452 69.1853C460.637 67.4419 460.736 65.5863 460.736 63.613C460.736 55.9189 459.632 48.2765 457.224 41.139C454.815 34.0015 451.102 27.371 445.884 21.7019C440.664 16.0328 433.94 11.325 425.51 8.0351C417.08 4.74519 406.944 2.87198 394.901 2.87198C382.858 2.87198 371.954 2.87086 362.373 2.86978C352.791 2.86869 344.53 2.86645 337.777 2.86536C331.023 2.86428 325.773 2.86205 322.213 2.86096C318.652 2.85988 316.78 2.85876 316.78 2.85876V22.6577V42.4567V62.2556V82.0546H331.69H346.598H361.508H376.418V74.6333L376.419 67.212V59.7907V52.3694C381.369 52.3694 385.854 52.3441 389.797 52.5663C393.741 52.7885 397.143 53.2582 399.926 54.2459C402.709 55.2336 404.873 56.7406 406.342 59.0383C407.81 61.3361 408.583 64.4248 408.583 68.5759C408.583 70.7758 408.29 72.6391 407.751 74.2175C407.212 75.796 406.428 77.0873 405.445 78.1444C404.463 79.2014 403.284 80.022 401.956 80.6588C400.629 81.2957 399.15 81.7456 397.573 82.0612H412.382L427.19 82.0601L441.999 82.059L456.807 82.0579Z" fill="black"/>
<path d="M522.883 96.895C523.848 100.417 525.377 103.706 527.367 106.658C529.358 109.61 531.81 112.225 534.619 114.399C537.429 116.574 540.597 118.309 544.018 119.499C547.44 120.689 551.117 121.337 554.945 121.337H554.941H554.936H554.932H554.928C559.518 121.337 563.89 120.406 567.867 118.724C571.845 117.043 575.426 114.607 578.433 111.599C581.441 108.591 583.875 105.008 585.557 101.031C587.238 97.0534 588.169 92.68 588.169 88.09C588.169 83.4999 587.238 79.1276 585.557 75.1502C583.875 71.1729 581.441 67.5915 578.433 64.5831C575.426 61.5748 571.845 59.1406 567.867 57.4577C563.89 55.7748 559.518 54.8453 554.928 54.8453H554.932H554.936H554.941H554.945C550.871 54.8453 546.967 55.579 543.361 56.9198C539.754 58.2606 536.442 60.2108 533.551 62.645C530.661 65.0781 528.19 67.9963 526.265 71.2719C524.34 74.5486 522.961 78.1828 522.251 82.0524L508.729 82.0513L495.207 82.0502L481.686 82.0491H468.164C468.743 70.6229 471.539 59.7818 476.131 49.9473C480.723 40.1127 487.109 31.2845 494.871 23.8852C502.632 16.4859 511.767 10.5143 521.854 6.39285C531.942 2.27138 542.981 0 554.551 0C566.494 0 577.872 2.42097 588.22 6.79763C598.569 11.1743 607.888 17.5089 615.716 25.335C623.543 33.161 629.876 42.4809 634.253 52.8302C638.63 63.1785 641.051 74.5563 641.051 86.4994C641.051 98.4415 638.63 109.819 634.253 120.169C629.876 130.517 623.542 139.837 615.716 147.664C607.89 155.491 598.57 161.826 588.22 166.202C577.871 170.579 566.494 173 554.551 173C543.488 173 532.911 170.923 523.186 167.137C513.462 163.351 504.592 157.858 496.943 151.025C489.294 144.192 482.869 136.02 478.034 126.876C473.198 117.732 469.955 107.618 468.67 96.9005L482.223 96.8994L495.777 96.8983L509.33 96.8972L522.883 96.895Z" fill="black"/>
<path d="M628.17 156.251H628.874H629.578H630.282H630.986C631.246 156.251 631.522 156.26 631.792 156.294C632.061 156.328 632.325 156.386 632.56 156.485C632.796 156.584 633.002 156.725 633.16 156.921C633.317 157.118 633.424 157.371 633.459 157.697C633.459 158.191 633.341 158.563 633.151 158.842C632.961 159.12 632.698 159.306 632.408 159.43C632.119 159.554 631.801 159.616 631.502 159.647C631.203 159.677 630.922 159.678 630.705 159.678H630.071H629.438H628.804H628.17V158.821V157.964V157.107V156.251ZM626.063 154.242V157.335V160.428V163.521V166.614H626.59H627.117H627.644H628.17V165.375V164.137V162.898V161.66H628.796H629.422H630.048H630.674C631.201 161.703 631.622 161.767 631.956 161.872C632.292 161.976 632.541 162.12 632.727 162.321C632.913 162.521 633.038 162.776 633.119 163.104C633.2 163.432 633.241 163.831 633.262 164.319C633.276 164.709 633.292 165.024 633.31 165.283C633.329 165.542 633.352 165.746 633.381 165.912C633.409 166.078 633.442 166.208 633.483 166.319C633.524 166.43 633.571 166.521 633.627 166.614H634.154H634.681H635.208H635.735C635.664 166.486 635.611 166.375 635.57 166.246C635.528 166.118 635.498 165.973 635.474 165.778C635.45 165.583 635.43 165.339 635.41 165.012C635.39 164.686 635.37 164.277 635.341 163.753C635.327 163.357 635.297 162.996 635.234 162.669C635.172 162.344 635.075 162.052 634.927 161.796C634.78 161.54 634.581 161.318 634.315 161.129C634.047 160.941 633.712 160.787 633.291 160.666V160.652V160.638V160.623V160.609C633.705 160.51 634.055 160.358 634.347 160.165C634.638 159.971 634.87 159.736 635.052 159.471C635.233 159.206 635.362 158.91 635.445 158.595C635.529 158.281 635.568 157.948 635.568 157.609C635.568 156.766 635.344 156.135 634.998 155.661C634.651 155.186 634.182 154.871 633.688 154.661C633.194 154.451 632.676 154.345 632.235 154.292C631.794 154.239 631.427 154.239 631.237 154.239H629.944H628.65H627.356H626.063L626.063 154.242ZM630.674 149.514C629.164 149.514 627.735 149.822 626.441 150.375C625.149 150.93 623.991 151.729 623.023 152.713C622.055 153.696 621.275 154.864 620.737 156.154C620.199 157.445 619.904 158.856 619.904 160.329C619.904 161.808 620.201 163.224 620.741 164.516C621.281 165.809 622.064 166.975 623.034 167.957C624.004 168.939 625.162 169.736 626.453 170.288C627.745 170.839 629.17 171.145 630.674 171.145C632.137 171.145 633.537 170.844 634.816 170.3C636.094 169.754 637.251 168.965 638.225 167.989C639.198 167.012 639.989 165.847 640.537 164.551C641.085 163.256 641.388 161.83 641.388 160.329C641.388 158.849 641.091 157.434 640.552 156.143C640.013 154.852 639.234 153.685 638.267 152.703C637.3 151.721 636.147 150.923 634.863 150.372C633.579 149.82 632.164 149.514 630.674 149.514ZM630.645 151.664C631.848 151.664 632.979 151.912 634.001 152.357C635.023 152.803 635.935 153.445 636.696 154.235C637.457 155.025 638.069 155.961 638.489 156.993C638.91 158.025 639.14 159.154 639.14 160.329C639.14 161.532 638.903 162.676 638.474 163.713C638.045 164.752 637.422 165.684 636.654 166.466C635.887 167.248 634.971 167.88 633.954 168.316C632.936 168.753 631.819 168.993 630.645 168.993C629.457 168.993 628.332 168.749 627.314 168.308C626.295 167.867 625.382 167.23 624.618 166.444C623.853 165.659 623.237 164.724 622.813 163.689C622.388 162.654 622.154 161.518 622.154 160.329C622.154 159.154 622.383 158.025 622.801 156.993C623.219 155.96 623.827 155.024 624.586 154.235C625.345 153.445 626.254 152.803 627.277 152.357C628.301 151.912 629.436 151.664 630.645 151.664Z" fill="black"/>
</g>
<defs>
<clipPath id="clip0_1_51">
<rect width="641.388" height="173" fill="white"/>
</clipPath>
</defs>
</svg>
