<svg width="324" height="209" viewBox="0 0 324 209" fill="none" xmlns="http://www.w3.org/2000/svg">
<g clip-path="url(#clip0_1_46)">
<path d="M104.521 0.72579C98.4238 0.917634 92.297 3.03324 87.4309 6.18403C67.2873 16.8464 64.1984 39.6529 58.4396 58.9769C52.3156 59.1596 46.3885 57.2911 40.9911 56.0241C39.9173 58.0141 39.0333 60.2117 38.6646 62.3771C44.4235 64.3671 50.1681 66.4001 56.65 66.7616C54.1338 78.1398 50.3291 88.9418 46.3598 99.4216C45.1071 101.591 44.9353 104.69 42.7807 106.312C31.449 103.602 16.7099 99.801 5.91513 106.49C2.48986 109.017 0.52847 112.618 0.725325 116.781C1.25504 122.378 4.81632 126.512 9.67327 129.039C24.9599 136.445 43.5251 131.183 56.1131 121.97C65.8341 125.399 75.3798 128.828 85.2834 131.724C115.681 139.848 146.938 147.125 180.4 146.04V146.219C228.987 146.033 276.884 138.631 322.046 126.892L322.762 126.355L320.883 119.286C302.711 123.434 284.021 126.877 264.958 128.681C227.352 131.033 189.813 132.11 152.572 129.397C121.63 127.232 92.4883 120.714 64.0768 111.859C73.422 98.1367 76.7614 81.676 81.7937 65.7773C98.1648 63.2504 112.442 53.3755 120.717 39.1125C124.669 30.9841 128.62 20.3146 124.117 11.1054C122.682 8.20985 120.553 6.38805 118.033 4.21549C114.019 1.61142 109.264 0.576638 104.521 0.72579ZM107.206 10.5685C109.364 10.7475 111.49 10.5428 113.111 12.3581C117.965 17.0433 116.526 25.5545 114.185 31.1488C109.149 44.3416 97.1627 53.9338 84.0307 57.3663C87.0873 44.1806 90.0938 31.1631 96.1999 19.248C98.5514 15.4541 102.166 10.9336 107.206 10.5685ZM178.253 36.0702C173.734 36.0369 169.924 37.6016 167.247 41.081C165.636 43.4254 165.278 47.5915 167.068 50.1184C169.233 53.1894 172.869 54.4063 176.463 54.7714C181.51 55.1257 187.63 54.0985 190.332 49.2236C191.76 46.8757 191.417 43.6115 189.974 41.26C187.641 38.0065 183.822 37.0616 180.221 36.1596C179.546 36.0915 178.898 36.0747 178.253 36.0702ZM125.907 62.3771C119.229 62.2858 112.331 63.6996 106.848 65.7773C96.411 69.7574 87.2519 80.9709 87.2519 92.8896C87.4346 99.7509 91.5219 105.381 96.9157 108.996C114.726 119.472 136.917 110.954 152.93 102.464C153.102 102.647 153.474 102.825 153.288 103.001C154.014 108.062 158.81 112.557 163.488 113.649C175.729 115.453 186.699 110.41 195.88 103.001C199.656 110.045 207.741 113.649 215.834 114.365L216.013 114.186C227.166 114.544 236.561 109.325 244.646 102.464C247.166 107.711 251.515 111.129 256.368 113.291C265.724 116.358 275.567 113.348 282.586 106.669C283.47 109.196 285.807 111.487 287.954 112.933C298.584 117.987 309.938 111.73 318.019 106.312C317.844 103.964 317.121 101.591 316.23 99.4216C312.804 101.225 308.116 103.921 304.329 101.032C303.624 99.9477 303.083 98.899 303.255 97.453L312.472 64.7036C305.993 64.5246 298.989 64.3385 292.16 64.5246L290.549 69.6249C289.654 68.3615 288.591 67.0336 287.328 65.9563C280.309 60.8989 270.191 62.531 262.811 65.5984C251.669 71.0208 242.867 81.311 242.678 94.3213C236.747 99.5504 229.037 105.538 220.576 102.106C216.428 99.7545 216.543 94.1817 217.266 89.8473C218.525 82.986 220.727 75.3731 227.556 72.3093C232.055 70.3121 236.393 73.265 239.635 76.1569C240.534 73.086 241.608 70.0115 242.141 66.7616C232.967 60.8023 218.747 62.6062 209.749 67.8354C200.393 73.4439 192.469 83.1149 193.196 95.0371C191.571 96.662 189.627 97.9756 187.648 99.0637C184.588 100.503 180.064 103.026 176.821 99.9585C176.105 98.8776 175.926 97.6463 175.926 96.2003C178.804 85.5523 181.889 74.6429 184.784 63.9877C177.229 63.9877 169.254 63.8051 162.057 64.1667L153.825 92.7106C147.719 96.8661 140.889 99.758 133.871 101.569C127.027 103.19 118.155 104.658 112.396 99.9585C110.771 98.1546 110.252 95.5955 110.785 93.0686C122.843 94.153 135.979 92.5281 143.534 83.6732C145.696 80.2444 147.311 75.3874 145.503 71.2356L143.713 68.3722C139.037 64.1255 132.585 62.4684 125.907 62.3771ZM126.265 68.9091C128.063 68.9761 129.658 69.6965 130.381 71.5935C131.287 76.2929 129.157 80.9638 125.191 84.0311C121.415 86.2001 116.719 87.3562 112.038 86.4471C114.021 80.4949 115.853 73.9593 121.075 69.9829C122.509 69.4424 124.467 68.842 126.265 68.9091ZM280.17 71.504C282.718 71.4519 284.73 72.7379 285.986 74.6358C288.523 81.8621 284.024 88.3548 282.407 94.8581C280.961 98.6521 277.607 102.632 273.101 103.717C270.763 103.896 268.362 103.015 267.106 101.032C264.41 93.6269 268.251 86.4149 270.416 79.7361C272.392 76.1247 275.055 73.0431 279.006 71.5935C279.388 71.5268 279.806 71.5112 280.17 71.504ZM18.7107 111.77C24.4031 111.381 30.3582 114.035 35.6223 115.528L36.875 116.065C31.2915 121.308 22.2469 125.22 13.9683 121.791C12.533 120.886 10.5681 119.483 10.5681 117.496C10.7579 115.685 11.649 114.2 13.0735 113.291C14.872 112.344 16.8132 111.899 18.7107 111.77ZM56.7394 159.552C43.815 159.552 41.3275 169.276 39.291 178.879C36.2451 193.264 36.5565 198.744 49.8495 198.744C52.9956 198.744 58.5398 197.913 60.766 197.491L64.8821 178.342H52.6234L51.4602 184.069H55.7552L53.9656 192.57C52.6735 192.988 51.1667 193.285 49.8495 193.285C45.3505 193.285 44.6597 191.185 47.1651 179.327C48.7328 171.946 50.1072 165.189 55.0393 165.189C59.2234 165.189 59.1482 168.36 58.3501 171.9H66.2243C68.3897 163.936 64.4812 159.552 56.7394 159.552ZM203.754 164.115L195.701 167.426L194.806 171.631H191.853L190.869 176.195H193.911L190.422 192.48C190.075 194.105 190.046 198.386 196.417 198.386C198.189 198.386 199.234 198.221 200.264 198.118L201.249 193.554C200.851 193.665 200.379 193.643 199.907 193.643C197.508 193.643 197.784 192.326 198.206 190.333L201.249 176.195H205.096L205.991 171.631H202.233L203.754 164.115ZM83.0464 171.095C73.3361 171.095 70.9738 177.287 69.4455 184.517C67.6917 192.806 67.7275 198.654 77.2302 198.654C80.6591 198.654 83.4938 197.691 85.5518 196.059C87.6814 194.42 89.1274 192.061 89.8468 189.169H82.3306C81.8617 191.367 80.8237 193.912 78.2145 193.912C74.9932 193.912 75.8594 189.184 76.5144 186.038H90.6521C92.703 177.544 92.9571 171.095 83.0464 171.095ZM109.264 171.095C99.5536 171.095 97.1913 177.283 95.663 184.517C93.8985 192.799 93.8627 198.654 103.358 198.654C112.854 198.654 115.395 192.799 117.138 184.517C118.674 177.283 118.971 171.095 109.264 171.095ZM134.139 171.095C129.393 171.095 123.369 172.877 122.149 178.611C120.37 187.04 133.631 185.78 132.439 191.406C132.06 193.192 130.667 194.091 129.218 194.091C127.747 194.091 127.031 193.679 126.802 192.838C126.609 192.004 126.766 190.827 127.07 189.617H119.822C117.839 197.019 121.805 198.654 128.233 198.654C134.35 198.654 138.889 195.218 139.866 190.601C141.677 182.115 128.602 182.28 129.486 178.074C129.865 176.292 131.007 175.3 132.618 175.3C133.384 175.3 134.035 175.357 134.407 175.837C134.833 176.306 134.794 177.394 134.407 179.237H141.566C143.198 173.507 139.154 171.095 134.139 171.095ZM180.668 171.095C175.93 171.095 169.895 172.877 168.678 178.611C166.889 187.04 180.157 185.78 178.968 191.406C178.589 193.192 177.111 194.091 175.658 194.091C174.183 194.091 173.481 193.679 173.242 192.838C173.056 192.004 173.292 190.827 173.6 189.617H166.352C164.369 197.019 168.324 198.654 174.763 198.654C180.869 198.654 185.321 195.218 186.306 190.601C188.102 182.115 175.128 182.28 176.016 178.074C176.395 176.292 177.526 175.3 179.147 175.3C179.906 175.3 180.479 175.357 180.847 175.837C181.288 176.306 181.241 177.394 180.847 179.237H188.095C189.727 173.507 185.686 171.095 180.668 171.095ZM219.681 171.095C209.971 171.095 207.602 177.287 206.081 184.517C204.327 192.806 204.366 198.654 213.865 198.654C217.305 198.654 220.118 197.691 222.187 196.059C224.309 194.42 225.684 192.061 226.392 189.169H218.966C218.5 191.367 217.444 193.912 214.85 193.912C211.61 193.912 212.491 189.184 213.149 186.038H227.287C229.349 177.544 229.596 171.095 219.681 171.095ZM248.762 171.095C245.985 171.095 243.855 171.95 241.872 174.316H241.783L242.32 171.631H234.983L229.345 198.117H236.772L240.62 179.864C241.124 177.508 241.926 175.658 244.288 175.658C246.651 175.658 246.669 177.508 246.168 179.864L242.32 198.117H249.568L253.415 179.864C253.913 177.508 254.722 175.658 257.084 175.658C259.45 175.658 259.468 177.508 258.963 179.864L255.115 198.117H262.453L266.927 176.911C267.714 173.235 265.062 171.095 261.558 171.095C258.526 171.095 256.268 172.179 254.042 174.495C253.279 172.387 251.386 171.095 248.762 171.095ZM282.407 171.095C277.653 171.095 271.633 172.877 270.416 178.611C268.641 187.04 281.891 185.78 280.706 191.406C280.323 193.192 278.856 194.091 277.396 194.091C275.932 194.091 275.216 193.679 274.98 192.838C274.801 192.004 275.019 190.827 275.338 189.617H268.09C266.111 197.019 270.062 198.654 276.501 198.654C282.614 198.654 287.138 195.218 288.133 190.601C289.93 182.115 276.859 182.28 277.754 178.074C278.133 176.292 279.278 175.3 280.885 175.3C281.648 175.3 282.213 175.357 282.586 175.837C283.022 176.306 282.968 177.394 282.586 179.237H289.833C291.462 173.507 287.407 171.095 282.407 171.095ZM145.95 171.631L147.472 198.386L142.55 208.229H150.245L168.231 171.631H161.072L153.198 190.243H153.109L153.288 171.631H145.95ZM82.0621 175.658C85.5447 175.658 84.6606 179.355 84.1201 181.922H77.4092C77.8888 179.67 78.6726 175.658 82.0621 175.658ZM218.697 175.658C222.187 175.658 221.292 179.355 220.755 181.922H214.044C214.524 179.67 215.304 175.658 218.697 175.658ZM108.19 175.837C111.315 175.837 111.046 178.657 109.89 184.159C108.176 192.23 107.145 193.912 104.432 193.912C101.723 193.912 101.386 192.23 103.09 184.159C104.257 178.657 105.058 175.837 108.19 175.837Z" fill="black"/>
</g>
<defs>
<clipPath id="clip0_1_46">
<rect width="323.473" height="208.94" fill="white"/>
</clipPath>
</defs>
</svg>
