<svg width="723" height="173" viewBox="0 0 723 173" fill="none" xmlns="http://www.w3.org/2000/svg">
<path d="M116.485 169.603L29.0619 41.461H27.3467V169.603H0V0H31.1178L118.377 128.647H119.675V0H147.025V169.603H116.485Z" fill="black"/>
<path d="M267.634 33.861H294.938L332.205 141.274H332.631L370.734 33.861H397.53L346.727 169.603H317.19L267.634 33.861Z" fill="black"/>
<path d="M288.6 169.603H261.293L224.02 62.1839H223.597L185.496 169.603H158.697L209.504 33.861H239.04L288.6 169.603Z" fill="black"/>
<path d="M457.588 169.603L396.013 0H425.236L473.546 137.859H475.072L524.313 0H553.198L490.081 169.603H457.588Z" fill="black"/>
<path d="M582.412 33.861H555.911V169.603H582.412V33.861Z" fill="black"/>
<path d="M663.063 173C654.611 173 646.537 172.042 639.064 170.138C631.574 168.241 624.968 165.284 619.439 161.367C613.889 157.444 609.385 152.335 606.061 146.198C602.725 140.051 600.97 132.701 600.833 124.356L600.827 124.188H627.225V124.35C627.225 129.501 628.195 133.957 630.12 137.585C632.036 141.225 634.752 144.242 638.185 146.557C641.616 148.886 645.624 150.598 650.092 151.666C654.559 152.739 659.492 153.281 664.729 153.281C670.374 153.281 675.261 152.669 679.248 151.486C683.232 150.291 686.507 148.737 688.98 146.852C691.434 144.981 693.234 142.795 694.338 140.359C695.439 137.916 695.987 135.414 695.987 132.911C695.987 127.78 694.706 123.948 692.185 121.518C689.649 119.082 686.836 117.333 683.825 116.333C678.564 114.566 672.366 112.875 665.41 111.306C658.461 109.733 649.727 107.65 639.484 105.123C633.11 103.605 627.73 101.586 623.505 99.1166C619.272 96.6471 615.86 93.8492 613.354 90.8019C610.86 87.7546 609.06 84.4792 608.022 81.0578C606.985 77.6395 606.453 74.0964 606.453 70.5565C606.453 63.7167 608.038 57.7073 611.161 52.6984C614.287 47.6925 618.472 43.4896 623.606 40.1898C628.733 36.9023 634.642 34.4298 641.154 32.8514C647.65 31.2699 654.331 30.467 660.982 30.467C668.731 30.467 676.14 31.3977 683.004 33.2315C689.859 35.0684 695.975 37.8542 701.175 41.534C706.373 45.2018 710.557 49.794 713.611 55.1709C716.667 60.5599 718.218 66.8887 718.218 73.9778V74.142H691.839L691.82 73.99C691.139 65.3347 687.876 59.1397 682.122 55.5754C676.344 51.9989 668.89 50.1863 659.945 50.1863C656.913 50.1863 653.769 50.4783 650.606 51.0379C647.452 51.6035 644.52 52.5585 641.911 53.8814C639.308 55.1861 637.121 56.9956 635.409 59.2431C633.709 61.4875 632.839 64.3371 632.839 67.7068C632.839 72.4603 634.475 76.2222 637.681 78.8894C640.898 81.593 645.186 83.6519 650.411 85.0387C650.965 85.1665 653.148 85.7017 656.968 86.6536C660.788 87.6025 665.051 88.6426 669.771 89.7861C674.488 90.9266 679.108 92.0397 683.621 93.1162C688.241 94.2172 691.404 94.9988 693.304 95.4884C698.17 96.8965 702.458 98.8155 706.071 101.221C709.672 103.636 712.735 106.431 715.162 109.527C717.592 112.632 719.422 116.011 720.602 119.551C721.785 123.109 722.378 126.704 722.378 130.25C722.378 137.85 720.654 144.434 717.257 149.823C713.854 155.206 709.32 159.664 703.772 163.092C698.228 166.507 691.82 169.037 684.768 170.622C677.712 172.194 670.404 173 663.063 173Z" fill="black"/>
</svg>
