<svg width="1272" height="166" viewBox="0 0 1272 166" fill="none" xmlns="http://www.w3.org/2000/svg">
<g clip-path="url(#clip0_1_66)">
<path d="M134.917 106.22H41.9742V165.939H0V0H134.917C156.516 0 171.69 15.1743 171.69 36.7733V69.5083C171.69 91.0461 156.516 106.22 134.917 106.22ZM41.9742 31.0218V75.1375H118.335C124.76 75.1375 128.982 70.8544 128.982 64.491V41.7295C128.982 35.3048 124.699 31.0829 118.335 31.0829H41.9742V31.0218Z" fill="black"/>
<path d="M332.551 105.731L366.938 165.939H321.659L287.517 106.22H233.673V165.939H191.698V0H326.616C348.215 0 363.389 15.1743 363.389 36.7733V69.5083C363.389 88.9657 350.846 103.406 332.551 105.792V105.731ZM233.673 31.0218V75.1375H310.034C316.459 75.1375 320.68 70.8544 320.68 64.491V41.7295C320.68 35.3048 316.397 31.0829 310.034 31.0829H233.673V31.0218Z" fill="black"/>
<path d="M416.56 0H521.802C541.259 0 555.026 13.767 555.026 33.2245V132.776C555.026 152.233 541.259 165.939 521.802 165.939H416.56C397.103 165.939 383.397 152.172 383.397 132.776V33.2245C383.397 13.767 397.164 0 416.56 0ZM408.973 82.9694L439.567 135.59H498.857L529.45 82.9694L498.857 30.3487H439.567L408.973 82.9694Z" fill="black"/>
<path d="M608.198 165.939C588.74 165.939 575.034 152.172 575.034 132.776V33.2245C575.034 13.767 588.801 0 608.198 0H713.439C732.897 0 746.664 13.767 746.664 33.2245V66.2042H712.277L691.657 30.4099H631.204L600.61 83.0306L631.204 135.651H691.657L712.277 99.857H746.664V132.837C746.664 152.294 732.897 166 713.439 166H608.198V165.939Z" fill="black"/>
<path d="M799.896 0H905.138C924.595 0 938.362 13.767 938.362 33.2245V132.776C938.362 152.233 924.595 165.939 905.138 165.939H799.896C780.439 165.939 766.733 152.172 766.733 132.776V33.2245C766.733 13.767 780.5 0 799.896 0ZM792.309 82.9694L822.902 135.59H882.192L912.786 82.9694L882.192 30.3487H822.902L792.309 82.9694Z" fill="black"/>
<path d="M1099.22 105.731L1133.61 165.939H1088.33L1054.19 106.22H1000.34V165.939H958.37V0H1093.29C1114.89 0 1130.06 15.1743 1130.06 36.7733V69.5083C1130.06 88.9657 1117.52 103.406 1099.22 105.792V105.731ZM1000.34 31.0218V75.1375H1076.71C1083.13 75.1375 1087.35 70.8544 1087.35 64.491V41.7295C1087.35 35.3048 1083.07 31.0829 1076.71 31.0829H1000.34V31.0218Z" fill="black"/>
<path d="M1191.98 98.3885V134.917H1321.7V166H1150.07V0H1321.7V31.0829H1191.98V67.3668H1282.54V98.4497H1191.98V98.3885Z" fill="black"/>
<path d="M677.461 55.007L693.798 82.9694L677.461 110.932H645.216L628.818 82.9694L645.216 55.007H677.461Z" fill="black"/>
</g>
<defs>
<clipPath id="clip0_1_66">
<rect width="1272" height="165.913" fill="white"/>
</clipPath>
</defs>
</svg>
